<svg width="40" height="40" viewBox="0 0 40 40" fill="none" xmlns="http://www.w3.org/2000/svg">
<g clip-path="url(#clip0_110_1107)">
<path d="M32.6867 8.6812C31.9537 7.91044 31.0833 7.29902 30.1254 6.88186C29.1675 6.46471 28.1407 6.25 27.1038 6.25C26.0669 6.25 25.0402 6.46471 24.0822 6.88186C23.1243 7.29902 22.254 7.91044 21.5209 8.6812L19.9996 10.2801L18.4783 8.6812C16.9976 7.12505 14.9894 6.25081 12.8954 6.25081C10.8014 6.25081 8.79319 7.12505 7.31251 8.6812C5.83184 10.2374 5 12.348 5 14.5487C5 16.7494 5.83184 18.86 7.31251 20.4162L8.83382 22.015L19.9996 33.75L31.1654 22.015L32.6867 20.4162C33.4201 19.6458 34.0019 18.7311 34.3988 17.7243C34.7957 16.7175 35 15.6385 35 14.5487C35 13.4589 34.7957 12.3798 34.3988 11.3731C34.0019 10.3663 33.4201 9.4516 32.6867 8.6812Z" fill="white" fill-opacity="0.7"/>
<path d="M22.028 9.16372L22.0282 9.1636C22.6979 8.45941 23.4912 7.90275 24.3617 7.52365C25.2322 7.14459 26.1638 6.95 27.1038 6.95C28.0438 6.95 28.9755 7.14459 29.8459 7.52365C30.7165 7.90275 31.5098 8.45941 32.1795 9.1636L32.1797 9.16384C32.8498 9.86778 33.3831 10.7054 33.7476 11.6298C34.112 12.5542 34.3 13.5462 34.3 14.5487C34.3 15.5512 34.112 16.5431 33.7476 17.4676C33.3831 18.3919 32.8498 19.2296 32.1797 19.9335L32.1796 19.9337L30.6583 21.5325L19.9996 32.7345L9.34094 21.5325L7.81963 19.9337C6.46612 18.5111 5.7 16.5747 5.7 14.5487C5.7 12.5227 6.46612 10.5862 7.81963 9.16372C9.17202 7.74239 10.9986 6.95081 12.8954 6.95081C14.7922 6.95081 16.6188 7.74239 17.9712 9.16372L19.4925 10.7626C19.6246 10.9014 19.8079 10.9801 19.9996 10.9801C20.1913 10.9801 20.3746 10.9014 20.5067 10.7626L22.028 9.16372Z" stroke="black" stroke-width="1.4" stroke-linecap="round" stroke-linejoin="round"/>
</g>
<defs>
<clipPath id="clip0_110_1107">
<rect width="30" height="30" fill="white" transform="translate(5 5)"/>
</clipPath>
</defs>
</svg>
