<svg width="24" height="24" viewBox="0 0 24 24" fill="none" xmlns="http://www.w3.org/2000/svg">
<path d="M12.9224 7.6875H3V9.5625H12.9224C13.2998 10.5493 14.2556 11.25 15.375 11.25C16.4944 11.25 17.4502 10.5493 17.8276 9.5625H21V7.6875H17.8276C17.4502 6.70074 16.4944 6 15.375 6C14.2556 6 13.2998 6.70074 12.9224 7.6875Z" fill="black"/>
<path d="M11.0776 15.1874H21V17.0624H11.0776C10.7002 18.0492 9.74445 18.7499 8.625 18.7499C7.50555 18.7499 6.54977 18.0492 6.17236 17.0624H3V15.1874H6.17236C6.54977 14.2007 7.50555 13.4999 8.625 13.4999C9.74445 13.4999 10.7002 14.2007 11.0776 15.1874Z" fill="black"/>
</svg>
