<svg width="24" height="24" viewBox="0 0 24 24" fill="none" xmlns="http://www.w3.org/2000/svg">
<path d="M11.4034 18.1268L5.49712 13.0201C5.16763 12.7353 5.16763 12.2733 5.49712 11.9884C5.82662 11.7035 6.36087 11.7035 6.69037 11.9884L11.1562 15.8497V4.47951C11.1562 4.07661 11.534 3.75 12 3.75C12.466 3.75 12.8437 4.07661 12.8437 4.47951V15.8497L17.3096 11.9884C17.6391 11.7035 18.1734 11.7035 18.5029 11.9884C18.8324 12.2733 18.8324 12.7353 18.5029 13.0201L12.5966 18.1268C12.5771 18.1437 12.5561 18.16 12.5348 18.1751C12.5283 18.1797 12.5216 18.184 12.5148 18.1882C12.5114 18.1903 12.508 18.1924 12.5047 18.1946C12.4927 18.2024 12.481 18.2104 12.4685 18.2176C12.4596 18.2228 12.4505 18.2274 12.4413 18.232C12.4381 18.2337 12.4349 18.2353 12.4317 18.2369C12.4282 18.2387 12.4248 18.2406 12.4213 18.2424C12.4135 18.2465 12.4058 18.2506 12.3977 18.2543C12.3882 18.2587 12.3786 18.2625 12.3689 18.2664C12.3657 18.2677 12.3625 18.269 12.3593 18.2703C12.3562 18.2715 12.3532 18.2728 12.3501 18.2741C12.3411 18.2778 12.3321 18.2816 12.3229 18.2849C12.3139 18.2881 12.3048 18.2908 12.2957 18.2936C12.2921 18.2947 12.2886 18.2958 12.285 18.2969C12.2717 18.301 12.2586 18.3054 12.245 18.309C12.2359 18.3113 12.2266 18.3133 12.2174 18.3152C12.2138 18.316 12.2102 18.3167 12.2066 18.3175C12.2031 18.3182 12.1997 18.319 12.1962 18.3198C12.1858 18.3222 12.1755 18.3245 12.1649 18.3263C12.1537 18.3282 12.1425 18.3295 12.1314 18.3308C12.1276 18.3313 12.1239 18.3317 12.1202 18.3322C12.1161 18.3327 12.112 18.3333 12.1079 18.3338C12.0998 18.335 12.0916 18.3361 12.0833 18.3368C12.0279 18.3415 11.9721 18.3415 11.9167 18.3368C11.9087 18.3361 11.9008 18.335 11.8929 18.3339C11.8885 18.3333 11.8842 18.3327 11.8798 18.3322C11.8761 18.3317 11.8724 18.3313 11.8686 18.3308C11.8575 18.3295 11.8463 18.3282 11.8351 18.3263C11.8245 18.3245 11.8142 18.3222 11.8038 18.3198C11.8003 18.319 11.7969 18.3182 11.7934 18.3175C11.7899 18.3167 11.7864 18.316 11.7829 18.3153C11.7735 18.3133 11.7642 18.3114 11.755 18.309C11.7448 18.3063 11.7349 18.3032 11.725 18.3C11.7216 18.2989 11.7183 18.2979 11.715 18.2969C11.7118 18.2959 11.7087 18.2949 11.7056 18.294C11.696 18.2911 11.6865 18.2882 11.6771 18.2849C11.6679 18.2816 11.6589 18.2778 11.6499 18.2741C11.6468 18.2728 11.6438 18.2715 11.6407 18.2703C11.6278 18.265 11.6149 18.2601 11.6023 18.2543C11.594 18.2504 11.5859 18.2462 11.5779 18.2419C11.5747 18.2403 11.5715 18.2386 11.5683 18.2369C11.5651 18.2353 11.5619 18.2337 11.5587 18.232C11.5495 18.2274 11.5404 18.2228 11.5315 18.2176C11.5222 18.2122 11.5132 18.2063 11.5043 18.2005C11.5013 18.1985 11.4983 18.1966 11.4953 18.1946C11.4918 18.1923 11.4882 18.1901 11.4847 18.1879C11.4781 18.1837 11.4715 18.1796 11.4652 18.1751C11.4439 18.16 11.4229 18.1436 11.4034 18.1268Z" fill="#A2A2A2"/>
<path d="M6.09374 19.6322H17.9062C18.3722 19.6322 18.75 19.9384 18.75 20.3161C18.75 20.6938 18.3723 21 17.9063 21H6.09374C5.62775 21 5.25 20.6938 5.25 20.3161C5.25 19.9383 5.62775 19.6322 6.09374 19.6322Z" fill="#A2A2A2"/>
</svg>
