<svg width="32" height="32" viewBox="0 0 32 32" fill="none" xmlns="http://www.w3.org/2000/svg">
<g opacity="0.4">
<rect x="0.5" y="0.5" width="31" height="31" rx="3.5" stroke="white"/>
<path d="M25 8.50841C24.2165 9.07307 23.349 9.50495 22.4309 9.78741C21.9382 9.20852 21.2833 8.79822 20.5548 8.612C19.8264 8.42578 19.0596 8.47262 18.3581 8.74619C17.6565 9.01977 17.0542 9.50686 16.6324 10.1416C16.2107 10.7764 15.9899 11.5281 16 12.2953V13.1312C14.5622 13.1693 13.1374 12.8435 11.8526 12.1828C10.5679 11.5221 9.46299 10.547 8.63636 9.34435C8.63636 9.34435 5.36364 16.8679 12.7273 20.2117C11.0422 21.3803 9.03495 21.9663 7 21.8836C14.3636 26.0633 23.3636 21.8836 23.3636 12.2702C23.3629 12.0373 23.341 11.805 23.2982 11.5763C24.1332 10.735 24.7225 9.67264 25 8.50841Z" fill="white"/>
</g>
</svg>
