<svg width="32" height="32" viewBox="0 0 32 32" fill="none" xmlns="http://www.w3.org/2000/svg">
<g opacity="0.4">
<rect x="0.5" y="0.5" width="31" height="31" rx="3.5" stroke="white"/>
<g clip-path="url(#clip0_2001_333)">
<path d="M20.2963 10.9038C19.8545 10.9038 19.4963 11.262 19.4963 11.7038C19.4963 12.1457 19.8545 12.5038 20.2963 12.5038H20.3038C20.7456 12.5038 21.1038 12.1457 21.1038 11.7038C21.1038 11.262 20.7456 10.9038 20.3038 10.9038H20.2963Z" fill="white"/>
<path fill-rule="evenodd" clip-rule="evenodd" d="M16.6095 12.0842C15.7929 11.9631 14.959 12.1026 14.2263 12.4828C13.4935 12.863 12.8994 13.4645 12.5282 14.2019C12.1571 14.9392 12.0279 15.7748 12.1591 16.5898C12.2902 17.4048 12.675 18.1577 13.2587 18.7414C13.8424 19.3251 14.5953 19.7099 15.4103 19.8411C16.2253 19.9722 17.0609 19.843 17.7983 19.4719C18.5356 19.1008 19.1372 18.5066 19.5173 17.7739C19.8975 17.0412 20.037 16.2072 19.9159 15.3907C19.7924 14.5577 19.4043 13.7866 18.8089 13.1912C18.2135 12.5958 17.4424 12.2077 16.6095 12.0842ZM14.9632 13.903C15.3972 13.6778 15.8911 13.5952 16.3748 13.6669C16.8681 13.7401 17.3249 13.9699 17.6775 14.3226C18.0302 14.6753 18.2601 15.132 18.3332 15.6254C18.405 16.109 18.3223 16.603 18.0972 17.037C17.872 17.471 17.5157 17.8229 17.0789 18.0427C16.6422 18.2626 16.1472 18.3391 15.6645 18.2614C15.1818 18.1837 14.7358 17.9558 14.3901 17.6101C14.0443 17.2643 13.8164 16.8184 13.7387 16.3356C13.6611 15.8529 13.7376 15.358 13.9574 14.9212C14.1772 14.4845 14.5292 14.1282 14.9632 13.903Z" fill="white"/>
<path fill-rule="evenodd" clip-rule="evenodd" d="M7.38855 12.0944C7.38855 9.4955 9.49538 7.38867 12.0943 7.38867H19.9057C22.5046 7.38867 24.6115 9.4955 24.6115 12.0944V19.9058C24.6115 20.8549 24.3305 21.7384 23.8472 22.4776C23.8293 22.6237 23.7373 22.7468 23.6099 22.8084C22.7485 23.9062 21.4095 24.6116 19.9057 24.6116H12.0943C9.49538 24.6116 7.38855 22.5047 7.38855 19.9058V12.0944ZM12.0943 8.98867C10.379 8.98867 8.98855 10.3792 8.98855 12.0944V19.9058C8.98855 21.6211 10.379 23.0116 12.0943 23.0116H19.9057C21.621 23.0116 23.0115 21.6211 23.0115 19.9058V12.0944C23.0115 10.3792 21.621 8.98867 19.9057 8.98867H12.0943Z" fill="white"/>
</g>
</g>
<defs>
<clipPath id="clip0_2001_333">
<rect width="18" height="18" fill="white" transform="translate(7 7)"/>
</clipPath>
</defs>
</svg>
