<svg width="32" height="32" viewBox="0 0 32 32" fill="none" xmlns="http://www.w3.org/2000/svg">
<g opacity="0.4">
<rect x="0.5" y="0.5" width="31" height="31" rx="3.5" stroke="white"/>
<g clip-path="url(#clip0_2001_315)">
<path fill-rule="evenodd" clip-rule="evenodd" d="M24.0494 10.2062C24.3281 10.4958 24.526 10.8544 24.6232 11.2458C24.8827 12.6962 25.0087 14.1677 24.9995 15.6415C25.0047 17.0933 24.8787 18.5425 24.6232 19.9712C24.526 20.3626 24.3281 20.7212 24.0494 21.0108C23.7707 21.3004 23.4211 21.5108 23.036 21.6206C21.6288 22 16 22 16 22C16 22 10.3712 22 8.964 21.6206C8.58669 21.5166 8.24239 21.3162 7.96435 21.0388C7.68632 20.7614 7.48395 20.4164 7.37681 20.0372C7.11727 18.5868 6.99129 17.1153 7.00047 15.6415C6.9933 14.1787 7.11927 12.7184 7.37681 11.2788C7.474 10.8874 7.67193 10.5288 7.95061 10.2392C8.22929 9.94955 8.57886 9.7392 8.964 9.62937C10.3712 9.25 16 9.25 16 9.25C16 9.25 21.6288 9.25 23.036 9.59638C23.4211 9.70622 23.7707 9.91656 24.0494 10.2062ZM18.6103 15.6559L14.2978 18.1084V13.2034L18.6103 15.6559Z" fill="white"/>
</g>
</g>
<defs>
<clipPath id="clip0_2001_315">
<rect width="18" height="18" fill="white" transform="translate(7 7)"/>
</clipPath>
</defs>
</svg>
