<svg width="18" height="18" viewBox="0 0 18 18" fill="none" xmlns="http://www.w3.org/2000/svg">
<g clip-path="url(#clip0_46_2376)">
<path fill-rule="evenodd" clip-rule="evenodd" d="M7.36422 0.75C3.71129 0.75 0.75 3.77429 0.75 7.50495C0.75 11.2356 3.71129 14.2599 7.36422 14.2599C8.95002 14.2599 10.4055 13.69 11.5449 12.7397L16.0942 17.0619C16.3722 17.3261 16.8072 17.31 17.0659 17.0261C17.3245 16.7422 17.3088 16.2979 17.0308 16.0338L12.5148 11.7433C13.4303 10.5843 13.9784 9.11 13.9784 7.50495C13.9784 3.7743 11.0172 0.75 7.36422 0.75ZM2.125 7.50495C2.125 4.54984 4.47068 2.15426 7.36422 2.15426C10.2578 2.15426 12.6034 4.54984 12.6034 7.50495C12.6034 10.4601 10.2578 12.8556 7.36422 12.8556C4.47068 12.8556 2.125 10.4601 2.125 7.50495Z" fill="#A2A2A2"/>
</g>
<defs>
<clipPath id="clip0_46_2376">
<rect width="18" height="18" fill="white"/>
</clipPath>
</defs>
</svg>
