<svg width="24" height="24" viewBox="0 0 24 24" fill="none" xmlns="http://www.w3.org/2000/svg">
<g clip-path="url(#clip0_46_2443)">
<path fill-rule="evenodd" clip-rule="evenodd" d="M20.9951 8.50232C20.9984 8.57782 21 8.65347 21 8.7292C21 9.38306 20.8774 10.0305 20.6393 10.6346C20.4011 11.2386 20.0521 11.7875 19.612 12.2497L18.6992 13.209L12.966 19.2345L11.9998 20.25L11.0335 19.2345L5.30029 13.209L4.38751 12.2497C3.4991 11.316 3 10.0496 3 8.7292C3 7.40876 3.4991 6.1424 4.38751 5.20871C5.27591 4.27502 6.48085 3.75047 7.73725 3.75047C8.96842 3.75047 10.1502 4.25417 11.0331 5.15298C11.0512 5.17139 11.0692 5.18997 11.087 5.20871L11.9998 6.16802L12.9126 5.20871C12.9304 5.18997 12.9483 5.17139 12.9664 5.15296C13.3948 4.71671 13.8979 4.36926 14.4493 4.12911C15.0213 3.88004 15.6341 3.75125 16.2532 3.75C15.7458 4.16065 15.3599 4.71543 15.1577 5.35204C15.1076 5.37094 15.0577 5.39116 15.0083 5.41268C14.6083 5.58687 14.2402 5.84419 13.927 6.17352L13.9268 6.17376L13.014 7.13307C12.7497 7.41081 12.3831 7.56802 11.9998 7.56802C11.6164 7.56802 11.2498 7.41081 10.9855 7.13307L10.0727 6.17376C9.44091 5.50971 8.59925 5.15047 7.73725 5.15047C6.87525 5.15047 6.03358 5.50971 5.40175 6.17376C4.76766 6.84017 4.4 7.75823 4.4 8.7292C4.4 9.70018 4.76766 10.6182 5.40175 11.2846L6.31453 12.244L11.9998 18.219L17.685 12.244L18.5978 11.2846L18.598 11.2844C18.9115 10.9551 19.1636 10.5604 19.3368 10.1211C19.4093 9.93734 19.4671 9.7477 19.51 9.55416C20.0972 9.34452 20.6093 8.97683 20.9951 8.50232Z" fill="#A2A2A2"/>
<path d="M18.9942 3.73169H17.9067V5.9067H15.7317V6.99421H17.9067V9.16922H18.9942V6.99421H21.1692V5.9067H18.9942V3.73169Z" fill="#A2A2A2"/>
</g>
<defs>
<clipPath id="clip0_46_2443">
<rect width="18" height="18" fill="white" transform="translate(3 3)"/>
</clipPath>
</defs>
</svg>
