<svg width="24" height="24" viewBox="0 0 24 24" fill="none" xmlns="http://www.w3.org/2000/svg">
<g clip-path="url(#clip0_12_3325)">
<path d="M3 5.8125C3 4.67341 3.89543 3.75 5 3.75C6.10457 3.75 7 4.67341 7 5.8125C7 6.95159 6.10457 7.875 5 7.875C3.89543 7.875 3 6.95159 3 5.8125Z" fill="#A2A2A2"/>
<path d="M3 12C3 10.8609 3.89543 9.9375 5 9.9375C6.10457 9.9375 7 10.8609 7 12C7 13.1391 6.10457 14.0625 5 14.0625C3.89543 14.0625 3 13.1391 3 12Z" fill="#A2A2A2"/>
<path d="M3 18.1875C3 17.0484 3.89543 16.125 5 16.125C6.10457 16.125 7 17.0484 7 18.1875C7 19.3266 6.10457 20.25 5 20.25C3.89543 20.25 3 19.3266 3 18.1875Z" fill="#A2A2A2"/>
<path d="M8 4.78125H21V6.84375H8V4.78125Z" fill="#A2A2A2"/>
<path d="M8 10.9688H21V13.0312H8V10.9688Z" fill="#A2A2A2"/>
<path d="M8 17.1562H21V19.2188H8V17.1562Z" fill="#A2A2A2"/>
</g>
<defs>
<clipPath id="clip0_12_3325">
<rect width="18" height="18" fill="white" transform="translate(3 3)"/>
</clipPath>
</defs>
</svg>
