<svg width="24" height="24" viewBox="0 0 24 24" fill="none" xmlns="http://www.w3.org/2000/svg">
<path d="M10.5201 5.51686C11.7203 5.18329 12.9837 5.1659 14.1919 5.4664C15.4002 5.76689 16.5127 6.37514 17.4262 7.23305C17.7947 7.57906 18.1259 7.96111 18.4157 8.37255C18.4346 8.39405 18.4511 8.41773 18.4649 8.44318C18.8705 9.0331 19.1919 9.68171 19.4175 10.3699C19.5208 10.6847 19.3492 11.0237 19.0343 11.1269C18.7194 11.2301 18.3805 11.0586 18.2773 10.7437C17.946 9.73318 17.3701 8.82658 16.6047 8.10778C15.8394 7.38906 14.9096 6.88143 13.9023 6.63093C12.8951 6.38044 11.8422 6.39489 10.8414 6.67304C9.8407 6.95116 8.92361 7.48419 8.17623 8.22379C8.17623 8.22379 8.17603 8.22399 7.75375 7.79775L7.33146 7.37152C8.22301 6.48908 9.31994 5.8504 10.5201 5.51686Z" fill="#A2A2A2"/>
<path d="M7.75375 7.79775L8.17623 8.22379L8.17427 8.22575L8.16432 8.23579C8.15504 8.24521 8.14058 8.26001 8.12144 8.27993C8.08317 8.31979 8.0263 8.38008 7.95503 8.45873C7.81235 8.61618 7.61283 8.84622 7.38968 9.1323C7.12264 9.47464 6.82684 9.89075 6.55475 10.3534L9.51598 9.88142C9.84322 9.82926 10.1508 10.0523 10.2029 10.3795C10.2551 10.7067 10.0321 11.0143 9.70487 11.0665L5.26096 11.7748C4.93372 11.8269 4.62616 11.6039 4.574 11.2767L3.84985 6.7335C3.79769 6.40626 4.02069 6.09869 4.34793 6.04653C4.67517 5.99437 4.98273 6.21737 5.03489 6.54461L5.53978 9.71222C5.84091 9.20417 6.16141 8.75585 6.4435 8.39423C6.68772 8.08115 6.90678 7.82843 7.06583 7.65293C7.14543 7.56508 7.21022 7.49634 7.25588 7.44878C7.27872 7.425 7.2968 7.4065 7.30957 7.39354L7.32469 7.37828L7.32914 7.37382L7.33057 7.3724L7.33146 7.37152C7.33146 7.37152 7.33146 7.37152 7.75375 7.79775Z" fill="#A2A2A2"/>
<path d="M13.9977 19.1188C12.7975 19.4524 11.5342 19.4698 10.3259 19.1693C9.11764 18.8688 8.00509 18.2606 7.09157 17.4027C6.72314 17.0566 6.39194 16.6746 6.10206 16.2632C6.08319 16.2417 6.06668 16.218 6.05291 16.1925C5.64735 15.6026 5.32586 14.954 5.10027 14.2658C4.99704 13.951 5.16862 13.612 5.4835 13.5088C5.79838 13.4056 6.13733 13.5771 6.24056 13.892C6.57183 14.9025 7.14768 15.8091 7.91306 16.5279C8.67837 17.2466 9.60824 17.7543 10.6155 18.0048C11.6227 18.2553 12.6756 18.2408 13.6764 17.9627C14.6771 17.6845 15.5942 17.1515 16.3416 16.4119C16.3416 16.4119 16.3418 16.4117 16.7641 16.838L17.1863 17.2642C16.2948 18.1466 15.1979 18.7853 13.9977 19.1188Z" fill="#A2A2A2"/>
<path d="M16.7641 16.838L16.3416 16.4119L16.3435 16.41L16.3535 16.3999C16.3628 16.3905 16.3772 16.3757 16.3964 16.3558C16.4346 16.3159 16.4915 16.2556 16.5628 16.177C16.7055 16.0195 16.905 15.7895 17.1281 15.5034C17.3952 15.1611 17.691 14.745 17.9631 14.2823L15.0018 14.7543C14.6746 14.8064 14.367 14.5835 14.3149 14.2562C14.2627 13.929 14.4857 13.6214 14.8129 13.5692L19.2568 12.8609C19.5841 12.8088 19.8916 13.0318 19.9438 13.359L20.668 17.9022C20.7201 18.2294 20.4971 18.537 20.1699 18.5892C19.8426 18.6413 19.5351 18.4183 19.4829 18.0911L18.978 14.9235C18.6769 15.4315 18.3564 15.8798 18.0743 16.2415C17.8301 16.5546 17.611 16.8073 17.452 16.9828C17.3724 17.0706 17.3076 17.1394 17.2619 17.1869C17.2391 17.2107 17.221 17.2292 17.2082 17.2422L17.1931 17.2574L17.1887 17.2619L17.1863 17.2642C17.1863 17.2642 17.1863 17.2642 16.7641 16.838Z" fill="#A2A2A2"/>
</svg>
