<svg width="24" height="24" viewBox="0 0 24 24" fill="none" xmlns="http://www.w3.org/2000/svg">
<path d="M3 6.21429C3 5.68173 3.40294 5.25 3.9 5.25H20.1C20.5971 5.25 21 5.68173 21 6.21429C21 6.74685 20.5971 7.17857 20.1 7.17857H3.9C3.40294 7.17857 3 6.74685 3 6.21429Z" fill="black"/>
<path d="M3 12C3 11.4674 3.40294 11.0357 3.9 11.0357H20.1C20.5971 11.0357 21 11.4674 21 12C21 12.5326 20.5971 12.9643 20.1 12.9643H3.9C3.40294 12.9643 3 12.5326 3 12Z" fill="black"/>
<path d="M3.9 16.8214C3.40294 16.8214 3 17.2532 3 17.7857C3 18.3183 3.40294 18.75 3.9 18.75H20.1C20.5971 18.75 21 18.3183 21 17.7857C21 17.2532 20.5971 16.8214 20.1 16.8214H3.9Z" fill="black"/>
</svg>
