<svg width="30" height="30" viewBox="0 0 30 30" fill="none" xmlns="http://www.w3.org/2000/svg">
<path fill-rule="evenodd" clip-rule="evenodd" d="M0.549999 2.50005C0.549999 2.11345 0.8634 1.80005 1.25 1.80005H6.2099C6.54394 1.80005 6.83144 2.03608 6.89649 2.36373L8.02548 8.04989L28.75 8.04984C28.9584 8.04984 29.156 8.14273 29.289 8.30323C29.422 8.46374 29.4765 8.67516 29.4378 8.87996L27.4538 19.3672L27.4528 19.3724C27.308 20.1077 26.9109 20.7694 26.3298 21.241C25.7504 21.7111 25.025 21.9622 24.2798 21.9495L12.0194 21.9496C11.2741 21.9623 10.5487 21.7112 9.96928 21.241C9.38823 20.7695 8.99122 20.1079 8.84629 19.3728L8.84623 19.3725L6.77172 8.92412C6.76547 8.8997 6.7605 8.87477 6.75689 8.8494L5.63522 3.20005H1.25C0.8634 3.20005 0.549999 2.88665 0.549999 2.50005ZM8.30345 9.44989L10.2196 19.1008L10.2198 19.1018C10.3017 19.5175 10.5258 19.8897 10.8514 20.1539C11.1769 20.4181 11.5833 20.5578 11.9995 20.5497L12.013 20.5495V20.5496L24.2861 20.5495H24.2996L24.2996 20.5497C24.7157 20.5577 25.1221 20.418 25.4476 20.1539C25.7726 19.8901 25.9965 19.5189 26.0788 19.1042L26.0792 19.1018L27.9052 9.44985L8.30345 9.44989ZM19 17.5C19 17.7762 18.7761 18 18.5 18C18.2239 18 18 17.7762 18 17.5C18 17.2239 18.2239 17 18.5 17C18.7761 17 19 17.2239 19 17.5ZM12.4234 28.75C13.8041 28.75 14.9234 27.6308 14.9234 26.25C14.9234 24.8693 13.8041 23.75 12.4234 23.75C11.0427 23.75 9.9234 24.8693 9.9234 26.25C9.9234 27.6308 11.0427 28.75 12.4234 28.75ZM23.5892 28.75C24.9699 28.75 26.0892 27.6308 26.0892 26.25C26.0892 24.8693 24.9699 23.75 23.5892 23.75C22.2085 23.75 21.0892 24.8693 21.0892 26.25C21.0892 27.6308 22.2085 28.75 23.5892 28.75Z" fill="black"/>
</svg>
