<svg width="159" height="44" viewBox="0 0 159 44" fill="none" xmlns="http://www.w3.org/2000/svg">
<path d="M55.2545 25.3444V31.3969H50.9541V13.5581H58.0725C59.4365 13.5581 60.6413 13.8113 61.6868 14.3177C62.7405 14.8159 63.5532 15.5306 64.1249 16.4618C64.7048 17.3848 64.9948 18.4343 64.9948 19.6105C64.9948 21.3503 64.37 22.7429 63.1203 23.7884C61.8787 24.8258 60.1716 25.3444 57.999 25.3444H55.2545ZM55.2545 22.0242H58.0725C58.9056 22.0242 59.5386 21.8159 59.9715 21.3993C60.4126 20.9827 60.6331 20.3946 60.6331 19.635C60.6331 18.8019 60.4085 18.1362 59.9593 17.638C59.51 17.1397 58.8974 16.8865 58.1215 16.8783H55.2545V22.0242Z" fill="black"/>
<path d="M73.8441 21.3013V21.3135L76.7968 13.5581H81.3301L75.3266 27.709C74.6813 29.1384 73.9544 30.1472 73.1458 30.7353C72.3453 31.3152 71.406 31.6215 70.3278 31.6542H69.4579L68.7963 31.6297L68.7228 28.2971C68.8208 28.3298 69.1067 28.3461 69.5805 28.3461C70.2339 28.3461 70.724 28.2359 71.0507 28.0153C71.3856 27.7866 71.6551 27.3497 71.8593 26.7044L72.0676 26.1163L65.6231 13.5581H70.1931L73.8441 21.3013Z" fill="black"/>
<path d="M96.5626 25.3567C96.5055 26.5982 96.1706 27.6968 95.558 28.6524C94.9454 29.5999 94.0837 30.335 92.9728 30.8578C91.8701 31.3805 90.6082 31.6419 89.187 31.6419C86.8428 31.6419 84.9968 30.8782 83.6491 29.3508C82.3014 27.8234 81.6275 25.6671 81.6275 22.8818V21.9996C81.6275 20.2517 81.9298 18.7243 82.5342 17.4174C83.1468 16.1024 84.0248 15.0896 85.1683 14.379C86.3119 13.6602 87.6351 13.3008 89.138 13.3008C91.3025 13.3008 93.0422 13.8725 94.3573 15.0161C95.6723 16.1514 96.4197 17.7196 96.5994 19.7208H92.3112C92.2785 18.6345 92.0049 17.8544 91.4903 17.3807C90.9758 16.9069 90.1916 16.6701 89.138 16.6701C88.068 16.6701 87.2838 17.0703 86.7856 17.8707C86.2874 18.6712 86.026 19.9495 86.0015 21.7056V22.9676C86.0015 24.8707 86.2383 26.2306 86.7121 27.0474C87.194 27.8642 88.019 28.2726 89.187 28.2726C90.1753 28.2726 90.9308 28.0398 91.4536 27.5743C91.9763 27.1087 92.254 26.3695 92.2867 25.3567H96.5626Z" fill="black"/>
<path d="M111.856 16.8783H106.502V31.3969H102.202V16.8783H96.9459V13.5581H111.856V16.8783Z" fill="black"/>
<path d="M117.606 25.3444V31.3969H113.306V13.5581H120.424C121.788 13.5581 122.993 13.8113 124.038 14.3177C125.092 14.8159 125.905 15.5306 126.476 16.4618C127.056 17.3848 127.346 18.4343 127.346 19.6105C127.346 21.3503 126.721 22.7429 125.472 23.7884C124.23 24.8258 122.523 25.3444 120.35 25.3444H117.606ZM117.606 22.0242H120.424C121.257 22.0242 121.89 21.8159 122.323 21.3993C122.764 20.9827 122.985 20.3946 122.985 19.635C122.985 18.8019 122.76 18.1362 122.311 17.638C121.862 17.1397 121.249 16.8865 120.473 16.8783H117.606V22.0242Z" fill="black"/>
<path d="M137.225 28.0644H131.332L130.302 31.3969H125.708L132.251 13.5581H136.294L142.885 31.3969H138.266L137.225 28.0644ZM132.361 24.7441H136.196L134.272 18.5569L132.361 24.7441Z" fill="black"/>
<path d="M150.13 24.3398H148.096V31.3969H143.795V13.5581H148.096V20.4559H149.75L153.18 13.5581H158.387L153.487 21.7914L159 31.3969H153.915L150.13 24.3398Z" fill="black"/>
<path fill-rule="evenodd" clip-rule="evenodd" d="M43.2642 23.7764C44.2453 22.7953 44.2453 21.2047 43.2642 20.2236L23.7764 0.735796C22.7953 -0.245266 21.2047 -0.245265 20.2236 0.735797L0.735796 20.2236C-0.245266 21.2047 -0.245265 22.7953 0.735796 23.7764L20.2236 43.2642C21.2047 44.2453 22.7953 44.2453 23.7764 43.2642L43.2642 23.7764ZM34.8912 23.7764C35.8722 22.7953 35.8722 21.2047 34.8912 20.2236L23.7764 9.10881C22.7953 8.12775 21.2047 8.12775 20.2236 9.10881L9.10881 20.2236C8.12775 21.2047 8.12775 22.7953 9.10881 23.7764L20.2236 34.8912C21.2047 35.8722 22.7953 35.8722 23.7764 34.8912L34.8912 23.7764Z" fill="#FEC80B"/>
</svg>
